<?xml version="1.0" standalone="no"?>
<!DOCTYPE svg PUBLIC "-//W3C//DTD SVG 20010904//EN"
 "http://www.w3.org/TR/2001/REC-SVG-20010904/DTD/svg10.dtd">
<svg version="1.0" xmlns="http://www.w3.org/2000/svg"
 width="600.000000pt" height="600.000000pt" viewBox="0 0 600.000000 600.000000"
 preserveAspectRatio="xMidYMid meet">
<metadata>
Created by potrace 1.11, written by Peter Selinger 2001-2013
</metadata>
<g transform="translate(0.000000,600.000000) scale(0.100000,-0.100000)"
fill="#000000" stroke="none">
<path d="M2733 5333 c-12 -35 -36 -53 -69 -53 -46 0 -49 -13 -14 -54 27 -30
30 -39 24 -75 -6 -39 -5 -41 19 -41 14 0 29 5 32 10 8 13 58 13 72 -1 6 -6 19
-9 29 -7 15 2 18 11 16 43 -2 31 3 47 23 69 28 33 28 50 -1 54 -55 8 -66 14
-76 42 -11 34 -45 41 -55 13z"/>
<path d="M3263 5280 c-3 -11 -13 -20 -22 -20 -27 0 -32 -11 -16 -34 8 -11 15
-31 15 -43 0 -26 10 -29 28 -11 10 10 17 10 33 0 25 -16 39 -8 32 18 -3 11 0
27 7 35 14 16 5 35 -16 35 -7 0 -19 9 -26 20 -7 11 -17 20 -21 20 -5 0 -11 -9
-14 -20z"/>
<path d="M3718 5236 c-18 -41 3 -78 44 -74 40 4 55 28 42 65 -7 22 -17 29 -42
31 -26 3 -34 -1 -44 -22z"/>
<path d="M3018 4989 c-10 -5 -18 -21 -18 -34 0 -33 47 -47 67 -20 17 24 16 30
-3 49 -18 19 -23 19 -46 5z"/>
<path d="M2181 4898 c-6 -15 -22 -30 -40 -36 -33 -12 -41 -36 -16 -46 10 -3
15 -19 15 -46 0 -39 12 -52 26 -29 4 7 23 9 50 5 43 -5 44 -5 44 23 0 16 7 34
15 41 20 17 19 39 -2 47 -10 3 -32 19 -50 36 l-32 30 -10 -25z"/>
<path d="M3345 4792 c-18 -33 -25 -37 -62 -40 -24 -2 -43 -7 -43 -11 0 -4 16
-21 36 -39 29 -26 33 -34 25 -51 -13 -23 -15 -61 -3 -61 4 0 18 9 32 20 30 23
53 25 69 6 6 -8 21 -16 32 -19 21 -6 22 2 3 65 -5 16 41 68 59 68 4 0 5 5 2
10 -3 6 -20 10 -36 10 -44 0 -66 15 -72 50 -8 40 -18 38 -42 -8z"/>
<path d="M2601 4801 c-11 -11 -27 -21 -34 -21 -23 0 -27 -12 -12 -34 8 -11 15
-31 15 -43 0 -26 3 -27 31 -12 15 8 24 7 35 -2 19 -15 34 2 34 39 0 12 5 22
10 22 17 0 11 20 -7 27 -10 3 -25 15 -34 26 -16 20 -16 20 -38 -2z"/>
<path d="M3615 4615 c-20 -15 -20 -15 0 -30 17 -14 21 -14 34 0 14 13 14 17 0
30 -13 14 -17 14 -34 0z"/>
<path d="M2571 4429 c-29 -60 -57 -109 -61 -109 -4 0 -44 39 -90 86 -48 50
-86 82 -91 77 -5 -5 -5 -40 1 -83 6 -41 13 -100 16 -130 l6 -55 -237 -230
c-130 -126 -241 -232 -245 -235 -4 -3 -124 -117 -266 -255 -142 -137 -411
-398 -599 -580 -187 -181 -490 -474 -673 -650 -183 -176 -332 -327 -332 -336
0 -19 365 -384 385 -384 11 0 285 259 585 555 42 41 164 158 270 260 107 102
223 214 259 250 37 36 118 114 181 175 63 60 254 244 423 408 215 209 311 297
319 289 5 -5 17 -41 24 -79 8 -37 19 -86 24 -108 5 -22 13 -60 19 -85 5 -25
14 -58 20 -73 6 -16 11 -34 11 -41 0 -6 -42 -41 -92 -76 -51 -35 -127 -97
-169 -137 -76 -74 -76 -74 -89 -148 -23 -133 3 -478 46 -627 5 -17 33 -33 95
-54 14 -5 73 -59 132 -120 93 -96 109 -119 132 -180 23 -64 30 -72 78 -101 77
-46 124 -72 200 -112 75 -38 74 -35 49 -121 -6 -19 -21 -70 -33 -112 l-22 -77
-56 -3 c-41 -2 -56 -7 -56 -17 0 -23 168 -166 290 -246 108 -71 272 -157 350
-184 22 -7 54 -19 70 -26 17 -7 50 -18 75 -25 25 -7 65 -18 90 -25 25 -8 77
-18 115 -25 39 -6 95 -15 126 -20 71 -13 379 -13 450 -1 30 5 86 15 124 21 82
14 226 51 270 70 11 5 43 17 70 26 28 10 80 33 118 51 37 18 69 33 71 33 6 0
180 103 186 110 3 3 44 34 92 68 110 79 275 244 374 375 42 55 79 108 82 116
3 9 15 30 28 46 30 42 127 245 159 335 26 73 32 91 55 175 21 78 41 202 50
310 9 113 3 176 -17 182 -6 2 -45 -31 -87 -74 -73 -75 -76 -80 -76 -127 0 -35
-8 -62 -26 -93 -28 -49 -45 -51 -55 -7 -4 16 -14 56 -24 89 -9 33 -21 77 -26
97 -12 50 -114 207 -142 217 -12 5 -78 22 -147 38 -114 26 -128 31 -173 71
-53 46 -54 47 -79 28 -20 -15 -23 -37 -9 -64 5 -9 18 -39 28 -66 22 -57 34
-64 79 -42 19 9 42 16 52 16 20 0 112 -77 112 -93 0 -9 -293 -209 -365 -250
-14 -7 -36 35 -203 385 -22 48 -31 57 -53 58 -44 0 -44 -1 2 -107 10 -23 48
-116 84 -205 36 -90 70 -171 75 -180 6 -10 10 -24 10 -32 0 -7 7 -19 15 -26
12 -10 32 -4 107 34 109 55 113 52 74 -58 -14 -40 -26 -79 -26 -88 0 -18 -69
-88 -170 -174 l-70 -59 0 -137 0 -136 -70 -51 c-39 -28 -84 -70 -101 -94 -63
-87 -201 -237 -222 -241 -61 -12 -188 -28 -191 -25 -13 19 -71 118 -101 174
-84 155 -79 141 -67 182 6 21 17 64 26 95 l14 58 -45 127 c-25 71 -48 142 -53
158 -4 17 -15 47 -23 68 l-17 39 -132 -6 c-73 -4 -174 -9 -225 -12 l-92 -6
-121 119 -121 118 11 130 c21 248 23 259 51 296 59 77 210 254 223 261 13 7
62 16 206 38 50 8 215 37 241 43 6 1 17 -22 25 -52 8 -29 17 -58 20 -63 12
-19 174 -118 193 -118 12 0 32 17 50 44 30 44 31 44 68 34 21 -5 54 -14 73
-18 19 -5 58 -16 87 -24 105 -32 159 -11 187 71 9 26 16 50 16 54 0 11 -89 39
-122 39 -39 0 -98 26 -98 43 0 8 -18 34 -39 58 -33 36 -42 42 -57 33 -10 -6
-22 -30 -28 -55 -6 -24 -16 -44 -23 -44 -6 0 -25 17 -42 39 -23 29 -31 49 -31
80 0 22 -6 48 -13 57 -25 31 -125 99 -156 105 l-32 7 3 -44 c3 -42 6 -46 68
-87 36 -23 66 -46 68 -50 4 -13 -38 -62 -53 -62 -7 0 -45 41 -84 90 -40 50
-81 95 -92 101 -17 8 -36 3 -104 -30 -80 -38 -119 -68 -133 -101 -4 -8 -23
-39 -42 -68 l-35 -53 -83 4 c-45 2 -87 8 -93 14 -6 6 -9 51 -7 109 l3 99 80
-3 c44 -2 92 -5 108 -8 23 -5 27 -2 27 17 0 12 -16 44 -35 70 -19 27 -35 55
-35 62 0 7 -5 18 -11 24 -18 18 -3 30 59 48 92 27 105 34 149 85 33 37 52 49
83 54 37 6 40 8 40 39 0 31 14 57 31 57 4 0 16 -16 28 -35 l20 -35 109 0 109
0 27 56 c20 41 32 55 44 51 46 -13 47 -13 47 22 0 31 4 35 43 48 76 26 44 57
-48 46 -42 -5 -49 -3 -68 22 -28 35 -27 38 3 71 28 30 25 44 -11 44 -27 0
-114 -79 -114 -104 0 -7 11 -21 25 -30 30 -20 31 -29 2 -85 -17 -34 -32 -47
-61 -57 -21 -8 -43 -11 -48 -8 -5 3 -20 30 -33 60 -25 57 -32 61 -68 42 -47
-24 -57 -28 -75 -28 -27 0 -42 20 -42 55 0 38 25 75 50 75 10 0 42 22 72 49
29 26 71 54 93 62 49 17 328 16 455 -2 66 -9 142 -9 340 0 140 7 266 14 279
17 22 5 23 6 6 24 -29 32 -203 145 -290 188 -194 96 -304 133 -550 182 -158
32 -471 32 -630 1 -174 -34 -282 -62 -350 -90 -11 -5 -38 -16 -60 -26 -108
-45 -97 -39 -190 -90 -38 -21 -77 -44 -86 -51 -8 -8 -19 -14 -24 -14 -5 0 -17
-8 -27 -17 -17 -15 -28 -16 -110 -5 -99 12 -119 22 -102 50 30 48 84 151 84
161 0 18 -19 13 -106 -29 -46 -22 -88 -40 -94 -40 -14 0 -30 44 -30 83 0 37
-25 136 -37 148 -4 4 -32 -41 -62 -102z m39 -194 c0 -55 14 -64 71 -41 l41 16
-23 -39 c-30 -55 -21 -71 40 -71 27 0 52 -4 55 -9 3 -5 -19 -21 -49 -36 -38
-18 -55 -32 -55 -46 0 -10 -3 -19 -7 -19 -12 0 -253 245 -253 258 0 19 10 14
44 -21 39 -43 65 -53 73 -29 13 32 45 82 54 82 5 0 9 -20 9 -45z m354 -285
c23 -57 26 -73 16 -85 -7 -8 -17 -15 -22 -15 -10 0 -137 130 -138 141 0 9 53
27 85 28 28 1 32 -4 59 -69z m816 -52 c16 -24 37 -52 45 -63 8 -10 15 -25 15
-32 0 -21 -38 -53 -63 -53 -13 0 -28 -5 -34 -11 -7 -7 -18 -9 -26 -6 -11 4
-13 15 -7 49 12 60 -3 68 -43 25 -35 -39 -87 -52 -87 -22 0 15 6 22 69 78 17
16 31 37 31 47 0 13 9 20 28 23 15 2 30 5 34 6 5 0 21 -18 38 -41z m-932 -89
c30 -4 56 -10 59 -12 10 -11 -44 -95 -69 -106 -29 -13 -46 -44 -70 -126 -12
-45 -17 -50 -42 -50 -24 0 -30 6 -42 40 -7 22 -14 71 -14 108 l0 68 51 49 c29
27 57 47 63 43 6 -4 35 -10 64 -14z m-738 -239 c44 -45 80 -85 80 -90 0 -5 -7
-13 -16 -18 -9 -5 -73 -65 -142 -133 -70 -69 -161 -156 -202 -194 -41 -38
-185 -176 -320 -306 -135 -129 -290 -278 -345 -330 -104 -97 -218 -206 -460
-439 -77 -74 -179 -172 -226 -217 -48 -46 -90 -83 -95 -83 -5 0 -48 38 -94 85
l-85 85 85 81 c47 44 168 160 270 258 102 97 228 217 280 266 52 49 207 197
345 330 137 132 288 276 334 320 106 100 300 286 406 387 44 43 86 78 92 78 7
0 49 -36 93 -80z m2970 -1958 c0 -21 -4 -42 -9 -47 -5 -6 -20 -30 -33 -55 -60
-107 -62 -110 -90 -110 -26 0 -27 0 -21 58 4 31 11 69 18 84 10 24 108 106
128 108 4 0 7 -17 7 -38z"/>
<path d="M2981 4484 c-12 -15 -21 -34 -21 -44 0 -30 39 -70 69 -70 37 0 71 34
71 70 0 64 -80 93 -119 44z"/>
</g>
</svg>
